Lexend-wght100-XTRA489-SPACmax.ufo
<glyph name="plus" format="2">
	<advance width="880"/>
	<unicode hex="002B"/>
	<note>
		plus
	</note>
	<outline>
		<contour>
			<point x="735" y="290" type="line"/>
			<point x="145" y="290" type="line"/>
			<point x="145" y="312" type="line"/>
			<point x="735" y="312" type="line"/>
		</contour>
		<contour>
			<point x="451" y="2" type="line"/>
			<point x="429" y="2" type="line"/>
			<point x="429" y="565" type="line"/>
			<point x="451" y="565" type="line"/>
		</contour>
	</outline>
</glyph>
<glyph name="zero" format="2">
	<advance width="838"/>
	<unicode hex="0030"/>
	<outline>
		<contour>
			<point x="732" y="350" type="qcurve"/>
			<point x="732" y="184"/>
			<point x="580" y="-10"/>
			<point x="424" y="-10" type="qcurve"/>
			<point x="264" y="-10"/>
			<point x="106" y="184"/>
			<point x="106" y="350" type="qcurve"/>
			<point x="106" y="516"/>
			<point x="264" y="710"/>
			<point x="424" y="710" type="qcurve"/>
			<point x="580" y="710"/>
			<point x="732" y="516"/>
		</contour>
		<contour>
			<point x="129" y="350" type="qcurve"/>
			<point x="129" y="187"/>
			<point x="284" y="12"/>
			<point x="424" y="12" type="qcurve"/>
			<point x="561" y="12"/>
			<point x="709" y="187"/>
			<point x="709" y="350" type="qcurve"/>
			<point x="709" y="513"/>
			<point x="561" y="688"/>
			<point x="424" y="688" type="qcurve"/>
			<point x="284" y="688"/>
			<point x="129" y="513"/>
		</contour>
	</outline>
</glyph>
<glyph name="eight" format="2">
	<advance width="814"/>
	<unicode hex="0038"/>
	<outline>
		<contour>
			<point x="647" y="539" type="qcurve"/>
			<point x="647" y="464"/>
			<point x="530" y="380"/>
			<point x="464" y="374" type="qcurve"/>
			<point x="463" y="386" type="line"/>
			<point x="558" y="371"/>
			<point x="693" y="275"/>
			<point x="693" y="194" type="qcurve" smooth="yes"/>
			<point x="693" y="111"/>
			<point x="534" y="-3"/>
			<point x="407" y="-3" type="qcurve"/>
			<point x="281" y="-3"/>
			<point x="121" y="110"/>
			<point x="121" y="193" type="qcurve" smooth="yes"/>
			<point x="121" y="276"/>
			<point x="261" y="370"/>
			<point x="361" y="385" type="qcurve"/>
			<point x="360" y="373" type="line"/>
			<point x="279" y="380"/>
			<point x="169" y="471"/>
			<point x="169" y="541" type="qcurve"/>
			<point x="169" y="612"/>
			<point x="300" y="710"/>
			<point x="407" y="710" type="qcurve"/>
			<point x="513" y="710"/>
			<point x="647" y="616"/>
		</contour>
		<contour>
			<point x="407" y="688" type="qcurve"/>
			<point x="318" y="688"/>
			<point x="191" y="607"/>
			<point x="191" y="541" type="qcurve"/>
			<point x="191" y="467"/>
			<point x="324" y="387"/>
			<point x="407" y="387" type="qcurve" smooth="yes"/>
			<point x="509" y="387"/>
			<point x="625" y="475"/>
			<point x="625" y="540" type="qcurve"/>
			<point x="625" y="607"/>
			<point x="502" y="688"/>
		</contour>
		<contour>
			<point x="143" y="193" type="qcurve"/>
			<point x="143" y="121"/>
			<point x="299" y="19"/>
			<point x="407" y="19" type="qcurve"/>
			<point x="516" y="19"/>
			<point x="671" y="121"/>
			<point x="671" y="194" type="qcurve"/>
			<point x="671" y="268"/>
			<point x="518" y="365"/>
			<point x="407" y="365" type="qcurve" smooth="yes"/>
			<point x="297" y="365"/>
			<point x="143" y="268"/>
		</contour>
	</outline>
</glyph>
<glyph name="at" format="2">
	<advance width="1306"/>
	<unicode hex="0040"/>
	<note>
		at
	</note>
	<outline>
		<contour>
			<point x="1201" y="364" type="qcurve"/>
			<point x="1201" y="211"/>
			<point x="1015" y="56"/>
			<point x="916" y="56" type="qcurve"/>
			<point x="830" y="56"/>
			<point x="808" y="169"/>
			<point x="826" y="201" type="qcurve"/>
			<point x="843" y="244" type="line"/>
			<point x="853" y="233" type="line"/>
			<point x="822" y="160"/>
			<point x="672" y="56"/>
			<point x="562" y="56" type="qcurve"/>
			<point x="474" y="56"/>
			<point x="354" y="156"/>
			<point x="354" y="249" type="qcurve"/>
			<point x="354" y="306"/>
			<point x="412" y="415"/>
			<point x="464" y="450" type="qcurve" smooth="yes"/>
			<point x="500" y="475"/>
			<point x="591" y="503"/>
			<point x="648" y="503" type="qcurve"/>
			<point x="737" y="503"/>
			<point x="857" y="415"/>
			<point x="874" y="346" type="qcurve"/>
			<point x="866" y="345" type="line"/>
			<point x="894" y="482" type="line"/>
			<point x="915" y="482" type="line"/>
			<point x="865" y="272" type="line"/>
			<point x="846" y="201" type="line"/>
			<point x="831" y="147"/>
			<point x="857" y="78"/>
			<point x="917" y="78" type="qcurve"/>
			<point x="1009" y="78"/>
			<point x="1178" y="224"/>
			<point x="1178" y="362" type="qcurve"/>
			<point x="1178" y="512"/>
			<point x="926" y="708"/>
			<point x="696" y="708" type="qcurve"/>
			<point x="441" y="708"/>
			<point x="128" y="411"/>
			<point x="128" y="221" type="qcurve"/>
			<point x="128" y="57"/>
			<point x="358" y="-160"/>
			<point x="526" y="-160" type="qcurve"/>
			<point x="615" y="-160"/>
			<point x="744" y="-124"/>
			<point x="769" y="-113" type="qcurve" smooth="yes"/>
			<point x="786" y="-106"/>
			<point x="802" y="-98"/>
			<point x="819" y="-91" type="qcurve"/>
			<point x="827" y="-111" type="line"/>
			<point x="794" y="-129"/>
			<point x="627" y="-182"/>
			<point x="526" y="-182" type="qcurve"/>
			<point x="350" y="-182"/>
			<point x="105" y="45"/>
			<point x="105" y="220" type="qcurve"/>
			<point x="105" y="321"/>
			<point x="177" y="483"/>
			<point x="238" y="547" type="qcurve" smooth="yes"/>
			<point x="316" y="630"/>
			<point x="545" y="730"/>
			<point x="695" y="730" type="qcurve"/>
			<point x="946" y="730"/>
			<point x="1201" y="515"/>
		</contour>
		<contour>
			<point x="377" y="250" type="qcurve"/>
			<point x="377" y="175"/>
			<point x="475" y="78"/>
			<point x="558" y="78" type="qcurve"/>
			<point x="667" y="78"/>
			<point x="814" y="175"/>
			<point x="847" y="274" type="qcurve" smooth="yes"/>
			<point x="849" y="280"/>
			<point x="853" y="297"/>
			<point x="855" y="308" type="qcurve" smooth="yes"/>
			<point x="865" y="362"/>
			<point x="747" y="481"/>
			<point x="652" y="481" type="qcurve"/>
			<point x="531" y="481"/>
			<point x="378" y="341"/>
		</contour>
	</outline>
</glyph>
<glyph name="E" format="2">
	<advance width="875"/>
	<unicode hex="0045"/>
	<anchor x="713" y="0" name="ogonek"/>
	<anchor x="462" y="700" name="top"/>
	<anchor x="20" y="700" name="topleft"/>
	<anchor x="462" y="0" name="bottom"/>
	<note>
		E
	</note>
	<outline>
		<contour>
			<point x="216" y="0" type="line"/>
			<point x="194" y="0" type="line"/>
			<point x="194" y="700" type="line"/>
			<point x="216" y="700" type="line"/>
		</contour>
		<contour>
			<point x="719" y="0" type="line"/>
			<point x="207" y="0" type="line"/>
			<point x="207" y="22" type="line"/>
			<point x="719" y="22" type="line"/>
		</contour>
		<contour>
			<point x="667" y="351" type="line"/>
			<point x="206" y="351" type="line"/>
			<point x="206" y="373" type="line"/>
			<point x="667" y="373" type="line"/>
		</contour>
		<contour>
			<point x="725" y="678" type="line"/>
			<point x="208" y="678" type="line"/>
			<point x="208" y="700" type="line"/>
			<point x="725" y="700" type="line"/>
		</contour>
	</outline>
</glyph>
<glyph name="W" format="2">
	<advance width="1129"/>
	<unicode hex="0057"/>
	<anchor x="558" y="700" name="top"/>
	<anchor x="640" y="0" name="bottom"/>
	<note>
		W
	</note>
	<outline>
		<contour>
			<point x="322" y="0" type="line"/>
			<point x="88" y="700" type="line"/>
			<point x="112" y="700" type="line"/>
			<point x="271" y="220" type="line" smooth="yes"/>
			<point x="299" y="134"/>
			<point x="311" y="102"/>
			<point x="341" y="10" type="qcurve"/>
			<point x="336" y="10" type="line"/>
			<point x="371" y="97"/>
			<point x="405" y="181"/>
			<point x="425" y="228" type="qcurve"/>
			<point x="551" y="541" type="line"/>
			<point x="566" y="541" type="line"/>
			<point x="689" y="230" type="line" smooth="yes"/>
			<point x="710" y="176"/>
			<point x="762" y="39"/>
			<point x="774" y="10" type="qcurve"/>
			<point x="760" y="10" type="line"/>
			<point x="771" y="40"/>
			<point x="803" y="130"/>
			<point x="838" y="224" type="qcurve"/>
			<point x="1017" y="700" type="line"/>
			<point x="1041" y="700" type="line"/>
			<point x="779" y="0" type="line"/>
			<point x="755" y="0" type="line"/>
			<point x="552" y="517" type="line"/>
			<point x="565" y="517" type="line"/>
			<point x="355" y="0" type="line"/>
		</contour>
	</outline>
</glyph>
<glyph name="bracketleft" format="2">
	<advance width="563"/>
	<unicode hex="005B"/>
	<note>
		bracketleft
	</note>
	<outline>
		<contour>
			<point x="497" y="-190" type="line"/>
			<point x="145" y="-190" type="line"/>
			<point x="145" y="700" type="line"/>
			<point x="497" y="700" type="line"/>
			<point x="497" y="678" type="line"/>
			<point x="157" y="678" type="line"/>
			<point x="168" y="686" type="line"/>
			<point x="168" y="-180" type="line"/>
			<point x="157" y="-168" type="line"/>
			<point x="497" y="-168" type="line"/>
		</contour>
	</outline>
</glyph>
<glyph name="asciicircum" format="2">
	<advance width="863"/>
	<unicode hex="005E"/>
	<note>
		asciicircum
	</note>
	<outline>
		<contour>
			<point x="141" y="368" type="line"/>
			<point x="111" y="368" type="line"/>
			<point x="417" y="733" type="line"/>
			<point x="445" y="733" type="line"/>
			<point x="751" y="368" type="line"/>
			<point x="721" y="368" type="line"/>
			<point x="426" y="720" type="line"/>
			<point x="436" y="720" type="line"/>
		</contour>
	</outline>
</glyph>
<glyph name="underscore" format="2">
	<advance width="910"/>
	<unicode hex="005F"/>
	<note>
		underscore
	</note>
	<outline>
		<contour>
			<point x="782" y="-105" type="line"/>
			<point x="128" y="-105" type="line"/>
			<point x="128" y="-83" type="line"/>
			<point x="782" y="-83" type="line"/>
		</contour>
	</outline>
</glyph>
<glyph name="grave" format="2">
	<advance width="305"/>
	<unicode hex="0060"/>
	<anchor x="155" y="515" name="_top"/>
	<outline>
		<contour>
			<point x="205" y="612" type="line"/>
			<point x="195" y="597" type="line"/>
			<point x="51" y="701" type="line"/>
			<point x="65" y="722" type="line"/>
		</contour>
	</outline>
</glyph>
<glyph name="h" format="2">
	<advance width="951"/>
	<unicode hex="0068"/>
	<anchor x="276" y="608" name="center"/>
	<anchor x="489" y="0" name="bottom"/>
	<anchor x="224" y="740" name="top"/>
	<note>
		h
	</note>
	<outline>
		<contour>
			<point x="481" y="536" type="qcurve"/>
			<point x="603" y="536"/>
			<point x="736" y="408"/>
			<point x="736" y="318" type="qcurve"/>
			<point x="736" y="0" type="line"/>
			<point x="714" y="0" type="line"/>
			<point x="714" y="311" type="line"/>
			<point x="714" y="403"/>
			<point x="585" y="514"/>
			<point x="486" y="514" type="qcurve"/>
			<point x="377" y="514"/>
			<point x="236" y="381"/>
			<point x="235" y="343" type="qcurve"/>
			<point x="235" y="0" type="line"/>
			<point x="253" y="0"/>
			<point x="194" y="0"/>
			<point x="213" y="0" type="qcurve"/>
			<point x="213" y="740" type="line"/>
			<point x="235" y="740" type="line"/>
			<point x="235" y="364" type="line"/>
			<point x="221" y="360" type="line"/>
			<point x="238" y="420"/>
			<point x="381" y="536"/>
		</contour>
	</outline>
</glyph>
<glyph name="l" format="2">
	<advance width="438"/>
	<unicode hex="006C"/>
	<anchor x="220" y="0" name="bottom"/>
	<anchor x="219" y="740" name="top"/>
	<anchor x="438" y="700" name="topright"/>
	<anchor x="440" y="370" name="center"/>
	<note>
		l
	</note>
	<outline>
		<contour>
			<point x="230" y="0" type="line"/>
			<point x="208" y="0" type="line"/>
			<point x="208" y="740" type="line"/>
			<point x="230" y="740" type="line"/>
		</contour>
	</outline>
</glyph>
<glyph name="m" format="2">
	<advance width="1381"/>
	<unicode hex="006D"/>
	<guideline x="1186" y="-44" angle="270"/>
	<anchor x="723" y="525" name="top"/>
	<anchor x="723" y="0" name="bottom"/>
	<note>
		m
	</note>
	<outline>
		<contour>
			<point x="458" y="536" type="qcurve"/>
			<point x="551" y="536"/>
			<point x="671" y="454"/>
			<point x="701" y="368" type="qcurve"/>
			<point x="695" y="368" type="line"/>
			<point x="688" y="374" type="line"/>
			<point x="719" y="444"/>
			<point x="851" y="536"/>
			<point x="939" y="536" type="qcurve"/>
			<point x="1057" y="536"/>
			<point x="1186" y="408"/>
			<point x="1186" y="318" type="qcurve"/>
			<point x="1186" y="0" type="line"/>
			<point x="1164" y="0" type="line"/>
			<point x="1164" y="311" type="line"/>
			<point x="1164" y="403"/>
			<point x="1040" y="514"/>
			<point x="944" y="514" type="qcurve"/>
			<point x="847" y="514"/>
			<point x="705" y="390"/>
			<point x="705" y="338" type="qcurve"/>
			<point x="705" y="0" type="line"/>
			<point x="683" y="0" type="line"/>
			<point x="683" y="311" type="line"/>
			<point x="683" y="403"/>
			<point x="559" y="514"/>
			<point x="463" y="514" type="qcurve"/>
			<point x="357" y="514"/>
			<point x="219" y="381"/>
			<point x="218" y="343" type="qcurve"/>
			<point x="218" y="0" type="line"/>
			<point x="196" y="0" type="line"/>
			<point x="196" y="525" type="line"/>
			<point x="216" y="525" type="line"/>
			<point x="218" y="363" type="line"/>
			<point x="203" y="368" type="line"/>
			<point x="244" y="447"/>
			<point x="373" y="536"/>
		</contour>
	</outline>
</glyph>
<glyph name="r" format="2">
	<advance width="689"/>
	<unicode hex="0072"/>
	<anchor x="391" y="525" name="top"/>
	<anchor x="230" y="0" name="bottom"/>
	<note>
		r
	</note>
	<outline>
		<contour>
			<point x="584" y="508" type="qcurve"/>
			<point x="575" y="488" type="line"/>
			<point x="550" y="502"/>
			<point x="481" y="514"/>
			<point x="455" y="514" type="qcurve"/>
			<point x="349" y="514"/>
			<point x="240" y="385"/>
			<point x="240" y="326" type="qcurve"/>
			<point x="240" y="0" type="line"/>
			<point x="218" y="0" type="line"/>
			<point x="218" y="525" type="line"/>
			<point x="238" y="525" type="line"/>
			<point x="239" y="372" type="line"/>
			<point x="228" y="365" type="line"/>
			<point x="250" y="444"/>
			<point x="365" y="536"/>
			<point x="454" y="536" type="qcurve"/>
			<point x="491" y="536"/>
			<point x="560" y="522"/>
		</contour>
	</outline>
</glyph>
<glyph name="z" format="2">
	<advance width="674"/>
	<unicode hex="007A"/>
	<anchor x="365" y="525" name="top"/>
	<anchor x="365" y="0" name="bottom"/>
	<note>
		z
	</note>
	<outline>
		<contour>
			<point x="102" y="22" type="line"/>
			<point x="584" y="22" type="line"/>
			<point x="584" y="0" type="line"/>
			<point x="85" y="0" type="line"/>
			<point x="85" y="26" type="line"/>
			<point x="549" y="514" type="line"/>
			<point x="551" y="503" type="line"/>
			<point x="85" y="503" type="line"/>
			<point x="85" y="525" type="line"/>
			<point x="563" y="525" type="line"/>
			<point x="563" y="497" type="line"/>
			<point x="103" y="13" type="line"/>
		</contour>
	</outline>
</glyph>
<glyph name="bar" format="2">
	<advance width="489"/>
	<unicode hex="007C"/>
	<note>
		bar
	</note>
	<outline>
		<contour>
			<point x="256" y="740" type="line"/>
			<point x="256" y="-193" type="line"/>
			<point x="233" y="-193" type="line"/>
			<point x="233" y="740" type="line"/>
		</contour>
	</outline>
</glyph>
<glyph name="copyright" format="2">
	<advance width="974"/>
	<unicode hex="00A9"/>
	<note>
		copyright
	</note>
	<outline>
		<contour>
			<point x="855" y="350" type="qcurve" smooth="yes"/>
			<point x="855" y="195"/>
			<point x="641" y="-18"/>
			<point x="487" y="-18" type="qcurve" smooth="yes"/>
			<point x="333" y="-18"/>
			<point x="120" y="195"/>
			<point x="120" y="350" type="qcurve" smooth="yes"/>
			<point x="120" y="504"/>
			<point x="333" y="717"/>
			<point x="487" y="717" type="qcurve" smooth="yes"/>
			<point x="641" y="717"/>
			<point x="855" y="504"/>
		</contour>
		<contour>
			<point x="143" y="350" type="qcurve" smooth="yes"/>
			<point x="143" y="204"/>
			<point x="344" y="4"/>
			<point x="488" y="4" type="qcurve" smooth="yes"/>
			<point x="631" y="4"/>
			<point x="832" y="204"/>
			<point x="832" y="350" type="qcurve" smooth="yes"/>
			<point x="832" y="494"/>
			<point x="631" y="695"/>
			<point x="488" y="695" type="qcurve" smooth="yes"/>
			<point x="344" y="695"/>
			<point x="143" y="494"/>
		</contour>
		<contour>
			<point x="492" y="142" type="qcurve" smooth="yes"/>
			<point x="412" y="142"/>
			<point x="288" y="255"/>
			<point x="288" y="350" type="qcurve" smooth="yes"/>
			<point x="288" y="434"/>
			<point x="406" y="557"/>
			<point x="492" y="557" type="qcurve" smooth="yes"/>
			<point x="526" y="557"/>
			<point x="593" y="533"/>
			<point x="621" y="512" type="qcurve"/>
			<point x="608" y="494" type="line"/>
			<point x="602" y="500"/>
			<point x="539" y="535"/>
			<point x="492" y="535" type="qcurve" smooth="yes"/>
			<point x="417" y="535"/>
			<point x="310" y="422"/>
			<point x="310" y="350" type="qcurve" smooth="yes"/>
			<point x="310" y="271"/>
			<point x="419" y="164"/>
			<point x="492" y="164" type="qcurve" smooth="yes"/>
			<point x="532" y="164"/>
			<point x="589" y="185"/>
			<point x="613" y="201" type="qcurve"/>
			<point x="625" y="185" type="line"/>
			<point x="594" y="163"/>
			<point x="526" y="142"/>
		</contour>
	</outline>
</glyph>
<glyph name="logicalnot" format="2">
	<advance width="960"/>
	<unicode hex="00AC"/>
	<note>
		logicalnot
	</note>
	<outline>
		<contour>
			<point x="825" y="117" type="line"/>
			<point x="803" y="117" type="line"/>
			<point x="803" y="379" type="line"/>
			<point x="814" y="367" type="line"/>
			<point x="135" y="367" type="line"/>
			<point x="135" y="389" type="line"/>
			<point x="825" y="389" type="line"/>
		</contour>
	</outline>
</glyph>
<glyph name="ordmasculine" format="2">
	<advance width="560"/>
	<unicode hex="00BA"/>
	<note>
		ordmasculine
	</note>
	<outline>
		<contour>
			<point x="280" y="731" type="qcurve"/>
			<point x="340" y="731"/>
			<point x="420" y="633"/>
			<point x="420" y="561" type="qcurve"/>
			<point x="420" y="489"/>
			<point x="339" y="392"/>
			<point x="280" y="392" type="qcurve"/>
			<point x="221" y="392"/>
			<point x="140" y="490"/>
			<point x="140" y="561" type="qcurve"/>
			<point x="140" y="632"/>
			<point x="221" y="731"/>
		</contour>
		<contour>
			<point x="279" y="412" type="qcurve"/>
			<point x="331" y="412"/>
			<point x="400" y="499"/>
			<point x="400" y="561" type="qcurve"/>
			<point x="400" y="624"/>
			<point x="330" y="711"/>
			<point x="279" y="711" type="qcurve"/>
			<point x="228" y="711"/>
			<point x="160" y="624"/>
			<point x="160" y="561" type="qcurve"/>
			<point x="160" y="499"/>
			<point x="227" y="412"/>
		</contour>
	</outline>
</glyph>
<glyph name="AE" format="2">
	<advance width="1374"/>
	<unicode hex="00C6"/>
	<anchor x="760" y="700" name="top"/>
	<anchor x="711" y="0" name="bottom"/>
	<note>
		AE
	</note>
	<outline>
		<contour>
			<point x="303" y="216" type="line"/>
			<point x="324" y="238" type="line"/>
			<point x="724" y="238" type="line"/>
			<point x="716" y="232" type="line"/>
			<point x="716" y="678" type="line"/>
			<point x="723" y="678" type="line"/>
			<point x="121" y="0" type="line"/>
			<point x="90" y="0" type="line"/>
			<point x="711" y="700" type="line"/>
			<point x="1224" y="700" type="line"/>
			<point x="1224" y="678" type="line"/>
			<point x="729" y="678" type="line"/>
			<point x="738" y="687" type="line"/>
			<point x="738" y="355" type="line"/>
			<point x="731" y="362" type="line"/>
			<point x="1167" y="362" type="line"/>
			<point x="1167" y="340" type="line"/>
			<point x="731" y="340" type="line"/>
			<point x="738" y="346" type="line"/>
			<point x="738" y="9" type="line"/>
			<point x="727" y="22" type="line"/>
			<point x="1224" y="22" type="line"/>
			<point x="1224" y="0" type="line"/>
			<point x="716" y="0" type="line"/>
			<point x="716" y="223" type="line"/>
			<point x="724" y="216" type="line"/>
		</contour>
	</outline>
</glyph>
<glyph name="germandbls" format="2">
	<advance width="967"/>
	<unicode hex="00DF"/>
	<note>
		germandbls
	</note>
	<outline>
		<contour>
			<point x="257" y="416" type="line"/>
			<point x="140" y="416" type="line"/>
			<point x="140" y="438" type="line"/>
			<point x="257" y="438" type="line"/>
		</contour>
		<contour>
			<point x="267" y="0" type="line"/>
			<point x="245" y="0" type="line"/>
			<point x="245" y="484" type="line"/>
			<point x="245" y="589"/>
			<point x="391" y="708"/>
			<point x="531" y="708" type="qcurve"/>
			<point x="648" y="708"/>
			<point x="774" y="630"/>
			<point x="774" y="557" type="qcurve"/>
			<point x="774" y="483"/>
			<point x="649" y="402"/>
			<point x="533" y="401" type="qcurve"/>
			<point x="533" y="411" type="line"/>
			<point x="684" y="379"/>
			<point x="847" y="256"/>
			<point x="847" y="174" type="qcurve"/>
			<point x="847" y="86"/>
			<point x="728" y="-9"/>
			<point x="617" y="-10" type="qcurve"/>
			<point x="532" y="-9"/>
			<point x="400" y="47"/>
			<point x="363" y="98" type="qcurve"/>
			<point x="372" y="124" type="line"/>
			<point x="411" y="70"/>
			<point x="539" y="12"/>
			<point x="619" y="12" type="qcurve"/>
			<point x="718" y="12"/>
			<point x="824" y="98"/>
			<point x="824" y="178" type="qcurve"/>
			<point x="823" y="247"/>
			<point x="668" y="359"/>
			<point x="525" y="394" type="qcurve"/>
			<point x="525" y="417" type="line"/>
			<point x="634" y="422"/>
			<point x="751" y="495"/>
			<point x="751" y="557" type="qcurve"/>
			<point x="751" y="619"/>
			<point x="638" y="686"/>
			<point x="532" y="686" type="qcurve"/>
			<point x="403" y="686"/>
			<point x="267" y="578"/>
			<point x="267" y="473" type="qcurve"/>
		</contour>
	</outline>
</glyph>
<glyph name="ae" format="2">
	<advance width="1399"/>
	<unicode hex="00E6"/>
	<anchor x="748" y="525" name="top"/>
	<anchor x="748" y="0" name="bottom"/>
	<note>
		ae
	</note>
	<outline>
		<contour>
			<point x="424" y="530" type="qcurve"/>
			<point x="522" y="530"/>
			<point x="666" y="449"/>
			<point x="666" y="348" type="qcurve"/>
			<point x="666" y="276" type="line"/>
			<point x="644" y="276" type="line"/>
			<point x="644" y="347" type="line"/>
			<point x="644" y="431"/>
			<point x="526" y="509"/>
			<point x="423" y="509" type="qcurve"/>
			<point x="355" y="509"/>
			<point x="225" y="461"/>
			<point x="169" y="421" type="qcurve"/>
			<point x="155" y="438" type="line"/>
			<point x="214" y="480"/>
			<point x="345" y="530"/>
		</contour>
		<contour>
			<point x="666" y="263" type="qcurve"/>
			<point x="667" y="154"/>
			<point x="849" y="14"/>
			<point x="991" y="14" type="qcurve"/>
			<point x="1081" y="14"/>
			<point x="1198" y="58"/>
			<point x="1241" y="86" type="qcurve"/>
			<point x="1246" y="63" type="line"/>
			<point x="1188" y="27"/>
			<point x="1078" y="-10"/>
			<point x="992" y="-10" type="qcurve"/>
			<point x="832" y="-10"/>
			<point x="644" y="145"/>
			<point x="644" y="263" type="qcurve"/>
			<point x="644" y="394"/>
			<point x="844" y="530"/>
			<point x="979" y="530" type="qcurve"/>
			<point x="1106" y="530"/>
			<point x="1274" y="405"/>
			<point x="1274" y="291" type="qcurve"/>
			<point x="1272" y="265" type="line"/>
			<point x="383" y="265" type="line"/>
			<point x="249" y="265"/>
			<point x="144" y="209"/>
			<point x="144" y="150" type="qcurve"/>
			<point x="144" y="84"/>
			<point x="259" y="12"/>
			<point x="368" y="12" type="qcurve"/>
			<point x="476" y="12"/>
			<point x="637" y="112"/>
			<point x="670" y="162" type="qcurve"/>
			<point x="682" y="145" type="line"/>
			<point x="648" y="90"/>
			<point x="483" y="-10"/>
			<point x="367" y="-10" type="qcurve"/>
			<point x="245" y="-10"/>
			<point x="122" y="76"/>
			<point x="122" y="149" type="qcurve"/>
			<point x="122" y="209"/>
			<point x="223" y="287"/>
			<point x="389" y="287" type="qcurve"/>
			<point x="1262" y="287" type="line"/>
			<point x="1252" y="272" type="line"/>
			<point x="1252" y="295" type="line"/>
			<point x="1252" y="395"/>
			<point x="1090" y="508"/>
			<point x="982" y="508" type="qcurve"/>
			<point x="859" y="508"/>
			<point x="667" y="388"/>
		</contour>
	</outline>
</glyph>
<glyph name="eth" format="2">
	<advance width="904"/>
	<unicode hex="00F0"/>
	<note>
		eth
	</note>
	<outline>
		<contour>
			<point x="776" y="261" type="qcurve"/>
			<point x="776" y="143"/>
			<point x="591" y="-10"/>
			<point x="448" y="-10" type="qcurve"/>
			<point x="309" y="-10"/>
			<point x="130" y="144"/>
			<point x="130" y="263" type="qcurve"/>
			<point x="130" y="378"/>
			<point x="303" y="527"/>
			<point x="437" y="527" type="qcurve" smooth="yes"/>
			<point x="566" y="527"/>
			<point x="736" y="416"/>
			<point x="761" y="333" type="qcurve"/>
			<point x="747" y="327" type="line"/>
			<point x="753" y="425"/>
			<point x="551" y="679"/>
			<point x="451" y="728" type="qcurve"/>
			<point x="471" y="739" type="line"/>
			<point x="558" y="698"/>
			<point x="776" y="432"/>
		</contour>
		<contour>
			<point x="152" y="263" type="qcurve"/>
			<point x="152" y="153"/>
			<point x="319" y="12"/>
			<point x="448" y="12" type="qcurve"/>
			<point x="581" y="12"/>
			<point x="753" y="153"/>
			<point x="753" y="263" type="qcurve"/>
			<point x="753" y="369"/>
			<point x="575" y="505"/>
			<point x="438" y="505" type="qcurve"/>
			<point x="313" y="505"/>
			<point x="152" y="369"/>
		</contour>
		<contour>
			<point x="592" y="623" type="line"/>
			<point x="394" y="594" type="line"/>
			<point x="390" y="616" type="line"/>
			<point x="574" y="641" type="line"/>
			<point x="587" y="644" type="line"/>
			<point x="717" y="664" type="line"/>
			<point x="722" y="643" type="line"/>
			<point x="607" y="626" type="line"/>
		</contour>
	</outline>
</glyph>
<glyph name="Lslash" format="2">
	<advance width="784"/>
	<unicode hex="0141"/>
	<anchor x="468" y="0" name="bottom"/>
	<anchor x="275" y="700" name="top"/>
	<anchor x="877" y="700" name="topright"/>
	<anchor x="468" y="350" name="center"/>
	<note>
		Lslash
	</note>
	<outline>
		<contour>
			<point x="167" y="22" type="line"/>
			<point x="689" y="22" type="line"/>
			<point x="689" y="0" type="line"/>
			<point x="178" y="0" type="line"/>
			<point x="178" y="700" type="line"/>
			<point x="200" y="700" type="line"/>
			<point x="200" y="1" type="line"/>
		</contour>
		<contour>
			<point x="-11" y="267" type="line"/>
			<point x="-16" y="288" type="line"/>
			<point x="519" y="496" type="line"/>
			<point x="524" y="475" type="line"/>
		</contour>
	</outline>
</glyph>
<glyph name="OE" format="2">
	<advance width="1447"/>
	<unicode hex="0152"/>
	<anchor x="736" y="700" name="top"/>
	<anchor x="736" y="0" name="bottom"/>
	<note>
		OE
	</note>
	<outline>
		<contour>
			<point x="135" y="350" type="qcurve" smooth="yes"/>
			<point x="135" y="503"/>
			<point x="353" y="700"/>
			<point x="521" y="700" type="qcurve"/>
			<point x="1297" y="700" type="line"/>
			<point x="1297" y="678" type="line"/>
			<point x="780" y="678" type="line"/>
			<point x="788" y="678" type="line"/>
			<point x="788" y="367" type="line"/>
			<point x="776" y="373" type="line"/>
			<point x="1239" y="373" type="line"/>
			<point x="1239" y="351" type="line"/>
			<point x="775" y="351" type="line"/>
			<point x="788" y="357" type="line"/>
			<point x="788" y="13" type="line"/>
			<point x="781" y="22" type="line"/>
			<point x="1291" y="22" type="line"/>
			<point x="1291" y="0" type="line"/>
			<point x="530" y="0" type="line" smooth="yes"/>
			<point x="358" y="0"/>
			<point x="135" y="197"/>
		</contour>
		<contour>
			<point x="774" y="22" type="line"/>
			<point x="766" y="13" type="line"/>
			<point x="766" y="688" type="line"/>
			<point x="775" y="678" type="line"/>
			<point x="521" y="678" type="line" smooth="yes"/>
			<point x="363" y="678"/>
			<point x="158" y="493"/>
			<point x="158" y="350" type="qcurve" smooth="yes"/>
			<point x="158" y="207"/>
			<point x="368" y="22"/>
			<point x="530" y="22" type="qcurve" smooth="yes"/>
		</contour>
	</outline>
</glyph>
<glyph name="Schwa" format="2">
	<advance width="982"/>
	<unicode hex="018F"/>
	<outline>
		<contour>
			<point x="847" y="344" type="qcurve" smooth="yes"/>
			<point x="847" y="189"/>
			<point x="642" y="-10"/>
			<point x="490" y="-10" type="qcurve" smooth="yes"/>
			<point x="346" y="-10"/>
			<point x="139" y="192"/>
			<point x="142" y="353" type="qcurve"/>
			<point x="142" y="365" type="line"/>
			<point x="838" y="365" type="line"/>
			<point x="838" y="343" type="line"/>
			<point x="164" y="343" type="line"/>
			<point x="165" y="207"/>
			<point x="348" y="12"/>
			<point x="491" y="12" type="qcurve" smooth="yes"/>
			<point x="627" y="12"/>
			<point x="825" y="199"/>
			<point x="825" y="348" type="qcurve"/>
			<point x="825" y="508"/>
			<point x="616" y="688"/>
			<point x="474" y="688" type="qcurve" smooth="yes"/>
			<point x="400" y="688"/>
			<point x="272" y="629"/>
			<point x="225" y="576" type="qcurve"/>
			<point x="210" y="589" type="line"/>
			<point x="259" y="646"/>
			<point x="391" y="710"/>
			<point x="477" y="710" type="qcurve"/>
			<point x="637" y="710"/>
			<point x="847" y="511"/>
		</contour>
	</outline>
</glyph>
<glyph name="florin" format="2">
	<advance width="880"/>
	<unicode hex="0192"/>
	<note>
		florin
	</note>
	<outline>
		<contour>
			<point x="194" y="-30" type="qcurve"/>
			<point x="154" y="-30"/>
			<point x="97" y="-8"/>
			<point x="80" y="2" type="qcurve"/>
			<point x="90" y="24" type="line"/>
			<point x="119" y="8"/>
			<point x="168" y="-7"/>
			<point x="194" y="-7" type="qcurve"/>
			<point x="251" y="-7"/>
			<point x="318" y="70"/>
			<point x="331" y="111" type="qcurve"/>
			<point x="465" y="547" type="line" smooth="yes"/>
			<point x="486" y="614"/>
			<point x="566" y="701"/>
			<point x="637" y="701" type="qcurve" smooth="yes"/>
			<point x="676" y="701"/>
			<point x="750" y="671"/>
			<point x="780" y="641" type="qcurve"/>
			<point x="769" y="621" type="line"/>
			<point x="737" y="650"/>
			<point x="672" y="679"/>
			<point x="636" y="679" type="qcurve"/>
			<point x="580" y="679"/>
			<point x="505" y="608"/>
			<point x="480" y="522" type="qcurve"/>
			<point x="359" y="120" type="line" smooth="yes"/>
			<point x="334" y="38"/>
			<point x="251" y="-30"/>
		</contour>
		<contour>
			<point x="675" y="417" type="line"/>
			<point x="216" y="417" type="line"/>
			<point x="216" y="439" type="line"/>
			<point x="675" y="439" type="line"/>
		</contour>
	</outline>
</glyph>
<glyph name="Nhookleft" format="2">
	<advance width="1074"/>
	<unicode hex="019D"/>
	<outline>
		<contour>
			<point x="233" y="470" type="qcurve"/>
			<point x="233" y="70" type="line" smooth="yes"/>
			<point x="233" y="-58"/>
			<point x="115" y="-190"/>
			<point x="27" y="-194" type="qcurve"/>
			<point x="23" y="-172" type="line"/>
			<point x="117" y="-161"/>
			<point x="211" y="-33"/>
			<point x="211" y="74" type="qcurve"/>
			<point x="211" y="700" type="line"/>
			<point x="241" y="700" type="line"/>
			<point x="866" y="18" type="line"/>
			<point x="861" y="17" type="line"/>
			<point x="859" y="78"/>
			<point x="860" y="203"/>
			<point x="859" y="241" type="qcurve"/>
			<point x="859" y="700" type="line"/>
			<point x="881" y="700" type="line"/>
			<point x="881" y="0" type="line"/>
			<point x="851" y="0" type="line"/>
			<point x="226" y="685" type="line"/>
			<point x="231" y="685" type="line"/>
			<point x="232" y="665"/>
			<point x="233" y="604"/>
			<point x="233" y="562" type="qcurve" smooth="yes"/>
			<point x="233" y="542"/>
			<point x="233" y="496"/>
		</contour>
	</outline>
</glyph>
<glyph name="ringhalfright" format="2">
	<advance width="242"/>
	<unicode hex="02BE"/>
	<outline>
		<contour>
			<point x="52" y="543" type="qcurve"/>
			<point x="52" y="565" type="line"/>
			<point x="85" y="565"/>
			<point x="133" y="610"/>
			<point x="133" y="641" type="qcurve"/>
			<point x="133" y="678"/>
			<point x="83" y="719"/>
			<point x="52" y="719" type="qcurve"/>
			<point x="52" y="740" type="line"/>
			<point x="92" y="740"/>
			<point x="155" y="681"/>
			<point x="155" y="641" type="qcurve"/>
			<point x="155" y="601"/>
			<point x="93" y="543"/>
		</contour>
	</outline>
</glyph>
<glyph name="ogonek" format="2">
	<advance width="348"/>
	<unicode hex="02DB"/>
	<outline>
		<contour>
			<point x="201" y="-230" type="qcurve" smooth="yes"/>
			<point x="161" y="-230"/>
			<point x="106" y="-175"/>
			<point x="106" y="-130" type="qcurve" smooth="yes"/>
			<point x="106" y="-58"/>
			<point x="220" y="14"/>
			<point x="256" y="18" type="qcurve"/>
			<point x="261" y="8" type="line"/>
			<point x="261" y="0" type="line"/>
			<point x="209" y="-9"/>
			<point x="128" y="-75"/>
			<point x="128" y="-130" type="qcurve" smooth="yes"/>
			<point x="128" y="-163"/>
			<point x="169" y="-208"/>
			<point x="201" y="-208" type="qcurve" smooth="yes"/>
			<point x="227" y="-208"/>
			<point x="262" y="-181"/>
			<point x="271" y="-163" type="qcurve"/>
			<point x="286" y="-176" type="line"/>
			<point x="276" y="-196"/>
			<point x="233" y="-230"/>
		</contour>
	</outline>
</glyph>
<glyph name="ringcomb" format="2">
	<advance width="264"/>
	<unicode hex="030A"/>
	<anchor x="160" y="775" name="top"/>
	<anchor x="160" y="515" name="_top"/>
	<outline>
		<contour>
			<point x="224" y="686" type="qcurve"/>
			<point x="224" y="650"/>
			<point x="168.28358" y="598"/>
			<point x="132" y="598" type="qcurve"/>
			<point x="95.46269" y="598"/>
			<point x="40" y="649.46269"/>
			<point x="40" y="686" type="qcurve"/>
			<point x="40" y="724.02985"/>
			<point x="95.46269" y="776"/>
			<point x="132" y="776" type="qcurve"/>
			<point x="169.28358" y="776"/>
			<point x="224" y="724"/>
		</contour>
		<contour>
			<point x="61" y="686" type="qcurve"/>
			<point x="61" y="659"/>
			<point x="102.85075" y="618"/>
			<point x="132" y="618" type="qcurve"/>
			<point x="161.89552" y="618"/>
			<point x="203" y="658.59701"/>
			<point x="203" y="686" type="qcurve"/>
			<point x="203" y="719.38806"/>
			<point x="160.40299" y="756"/>
			<point x="132" y="756" type="qcurve"/>
			<point x="101.85075" y="756"/>
			<point x="61" y="718"/>
		</contour>
	</outline>
</glyph>
<glyph name="horncomb" format="2">
	<advance width="0"/>
	<unicode hex="031B"/>
	<anchor x="76" y="458" name="_topright"/>
	<anchor x="159" y="525" name="topright"/>
	<outline>
		<contour>
			<point x="-37" y="504" type="qcurve"/>
			<point x="-37" y="525" type="line"/>
			<point x="9.79104" y="525"/>
			<point x="59" y="571.29851"/>
			<point x="59" y="624" type="qcurve"/>
			<point x="81" y="624" type="line"/>
			<point x="81" y="577.44826"/>
			<point x="25.56716" y="504"/>
		</contour>
	</outline>
</glyph>
<glyph name="dotbelowcomb" format="2">
	<advance width="0"/>
	<unicode hex="0323"/>
	<anchor x="110" y="0" name="_bottom"/>
	<anchor x="119" y="-206" name="bottom"/>
	<outline>
		<contour>
			<point x="153" y="-105" type="qcurve" smooth="yes"/>
			<point x="153" y="-114"/>
			<point x="142" y="-134"/>
			<point x="125" y="-134" type="qcurve" smooth="yes"/>
			<point x="109" y="-134"/>
			<point x="97" y="-116"/>
			<point x="97" y="-105" type="qcurve" smooth="yes"/>
			<point x="97" y="-97"/>
			<point x="108" y="-76"/>
			<point x="125" y="-76" type="qcurve" smooth="yes"/>
			<point x="140" y="-76"/>
			<point x="153" y="-94"/>
		</contour>
	</outline>
</glyph>
<glyph name="macronbelowcomb" format="2">
	<advance width="0"/>
	<unicode hex="0331"/>
	<anchor x="211" y="0" name="_bottom"/>
	<anchor x="211" y="-158" name="bottom"/>
	<outline>
		<contour>
			<point x="345" y="-106" type="line"/>
			<point x="74" y="-106" type="line"/>
			<point x="74" y="-84" type="line"/>
			<point x="345" y="-84" type="line"/>
		</contour>
	</outline>
</glyph>
<glyph name="pi" format="2">
	<advance width="994"/>
	<unicode hex="03C0"/>
	<note>
		pi
	</note>
	<outline>
		<contour>
			<point x="286" y="0" type="line"/>
			<point x="264" y="0" type="line"/>
			<point x="264" y="510" type="line"/>
			<point x="273" y="503" type="line"/>
			<point x="120" y="503" type="line"/>
			<point x="120" y="525" type="line"/>
			<point x="874" y="525" type="line"/>
			<point x="874" y="503" type="line"/>
			<point x="723" y="503" type="line"/>
			<point x="730" y="510" type="line"/>
			<point x="730" y="0" type="line"/>
			<point x="708" y="0" type="line"/>
			<point x="708" y="510" type="line"/>
			<point x="714" y="503" type="line"/>
			<point x="277" y="503" type="line"/>
			<point x="286" y="510" type="line"/>
		</contour>
	</outline>
</glyph>
<glyph name="Germandbls" format="2">
	<advance width="1052"/>
	<unicode hex="1E9E"/>
	<outline>
		<contour>
			<point x="843" y="609" type="line"/>
			<point x="695" y="598"/>
			<point x="563" y="540"/>
			<point x="563" y="486" type="qcurve" smooth="yes"/>
			<point x="563" y="448"/>
			<point x="627" y="400"/>
			<point x="713" y="373" type="qcurve" smooth="yes"/>
			<point x="765" y="357"/>
			<point x="841" y="320"/>
			<point x="865" y="299" type="qcurve" smooth="yes"/>
			<point x="892" y="276"/>
			<point x="917" y="221"/>
			<point x="917" y="188" type="qcurve" smooth="yes"/>
			<point x="917" y="93"/>
			<point x="787" y="-10"/>
			<point x="667" y="-10" type="qcurve" smooth="yes"/>
			<point x="600" y="-10"/>
			<point x="466" y="39"/>
			<point x="408" y="84" type="qcurve"/>
			<point x="422" y="101" type="line"/>
			<point x="478" y="58"/>
			<point x="606" y="12"/>
			<point x="669" y="12" type="qcurve" smooth="yes"/>
			<point x="778" y="12"/>
			<point x="895" y="102"/>
			<point x="895" y="185" type="qcurve" smooth="yes"/>
			<point x="895" y="215"/>
			<point x="871" y="265"/>
			<point x="845" y="286" type="qcurve" smooth="yes"/>
			<point x="822" y="305"/>
			<point x="752" y="339"/>
			<point x="705" y="354" type="qcurve" smooth="yes"/>
			<point x="612" y="383"/>
			<point x="542" y="439"/>
			<point x="542" y="484" type="qcurve" smooth="yes"/>
			<point x="542" y="550"/>
			<point x="679" y="617"/>
			<point x="831" y="626" type="qcurve"/>
			<point x="831" y="620" type="line"/>
			<point x="768" y="655"/>
			<point x="645" y="688"/>
			<point x="569" y="688" type="qcurve"/>
			<point x="381" y="686"/>
			<point x="212" y="508"/>
			<point x="212" y="311" type="qcurve"/>
			<point x="212" y="0" type="line"/>
			<point x="190" y="0" type="line"/>
			<point x="190" y="309" type="line" smooth="yes"/>
			<point x="190" y="520"/>
			<point x="374" y="710"/>
			<point x="580" y="710" type="qcurve" smooth="yes"/>
			<point x="647" y="710"/>
			<point x="769" y="676"/>
			<point x="839" y="638" type="qcurve"/>
		</contour>
	</outline>
</glyph>
<glyph name="colonsign" format="2">
	<advance width="1029"/>
	<unicode hex="20A1"/>
	<anchor x="531" y="700" name="top"/>
	<anchor x="491" y="0" name="bottom"/>
	<outline>
		<contour>
			<point x="291" y="-45" type="line"/>
			<point x="273" y="-35" type="line"/>
			<point x="667" y="760" type="line"/>
			<point x="685" y="750" type="line"/>
		</contour>
		<contour>
			<point x="446" y="-55" type="line"/>
			<point x="428" y="-45" type="line"/>
			<point x="822" y="750" type="line"/>
			<point x="840" y="740" type="line"/>
		</contour>
		<contour>
			<point x="849" y="116" type="qcurve"/>
			<point x="860" y="97" type="line"/>
			<point x="805" y="48"/>
			<point x="651" y="-10"/>
			<point x="559" y="-10" type="qcurve"/>
			<point x="371" y="-10"/>
			<point x="135" y="195"/>
			<point x="135" y="349" type="qcurve"/>
			<point x="135" y="503"/>
			<point x="371" y="710"/>
			<point x="559" y="710" type="qcurve"/>
			<point x="654" y="710"/>
			<point x="811" y="648"/>
			<point x="866" y="596" type="qcurve"/>
			<point x="858" y="574" type="line"/>
			<point x="806" y="626"/>
			<point x="652" y="688"/>
			<point x="559" y="688" type="qcurve"/>
			<point x="383" y="688"/>
			<point x="158" y="494"/>
			<point x="158" y="349" type="qcurve"/>
			<point x="158" y="204"/>
			<point x="383" y="12"/>
			<point x="559" y="12" type="qcurve"/>
			<point x="648" y="12"/>
			<point x="795" y="68"/>
		</contour>
	</outline>
</glyph>
<glyph name="lira" format="2">
	<advance width="940"/>
	<unicode hex="20A4"/>
	<outline>
		<contour>
			<point x="320" y="202" type="qcurve"/>
			<point x="320" y="154"/>
			<point x="279" y="83"/>
			<point x="242" y="69" type="qcurve"/>
			<point x="216" y="73" type="line"/>
			<point x="252" y="89"/>
			<point x="297" y="151"/>
			<point x="297" y="201" type="qcurve"/>
			<point x="297" y="240"/>
			<point x="275" y="315"/>
			<point x="263" y="351" type="qcurve" smooth="yes"/>
			<point x="250" y="392"/>
			<point x="234" y="465"/>
			<point x="234" y="502" type="qcurve"/>
			<point x="234" y="585"/>
			<point x="375" y="695"/>
			<point x="500" y="695" type="qcurve"/>
			<point x="590" y="695"/>
			<point x="705" y="635"/>
			<point x="739" y="591" type="qcurve"/>
			<point x="726" y="574" type="line"/>
			<point x="674" y="630"/>
			<point x="575" y="672"/>
			<point x="500" y="672" type="qcurve"/>
			<point x="382" y="672"/>
			<point x="257" y="573"/>
			<point x="257" y="501" type="qcurve"/>
			<point x="257" y="468"/>
			<point x="276" y="394"/>
			<point x="289" y="354" type="qcurve" smooth="yes"/>
			<point x="304" y="311"/>
			<point x="320" y="234"/>
		</contour>
		<contour>
			<point x="657" y="-5" type="qcurve"/>
			<point x="622" y="-5"/>
			<point x="530" y="15"/>
			<point x="479" y="28" type="qcurve" smooth="yes"/>
			<point x="422" y="42"/>
			<point x="323" y="67"/>
			<point x="289" y="67" type="qcurve"/>
			<point x="252" y="67"/>
			<point x="183" y="29"/>
			<point x="163" y="13" type="qcurve"/>
			<point x="152" y="32" type="line"/>
			<point x="181" y="55"/>
			<point x="247" y="89"/>
			<point x="289" y="89" type="qcurve"/>
			<point x="340" y="89"/>
			<point x="445" y="63"/>
			<point x="500" y="48" type="qcurve" smooth="yes"/>
			<point x="545" y="36"/>
			<point x="623" y="17"/>
			<point x="657" y="17" type="qcurve"/>
			<point x="695" y="17"/>
			<point x="760" y="50"/>
			<point x="778" y="69" type="qcurve"/>
			<point x="792" y="51" type="line"/>
			<point x="762" y="24"/>
			<point x="693" y="-5"/>
		</contour>
		<contour>
			<point x="667" y="248" type="line"/>
			<point x="149" y="248" type="line"/>
			<point x="149" y="270" type="line"/>
			<point x="667" y="270" type="line"/>
		</contour>
		<contour>
			<point x="667" y="398" type="line"/>
			<point x="149" y="398" type="line"/>
			<point x="149" y="420" type="line"/>
			<point x="667" y="420" type="line"/>
		</contour>
	</outline>
</glyph>
<glyph name="naira" format="2">
	<advance width="1210"/>
	<unicode hex="20A6"/>
	<anchor x="601" y="700" name="top"/>
	<anchor x="601" y="0" name="bottom"/>
	<outline>
		<contour>
			<point x="912" y="238" type="qcurve"/>
			<point x="912" y="697" type="line"/>
			<point x="934" y="697" type="line"/>
			<point x="934" y="-3" type="line"/>
			<point x="904" y="-3" type="line"/>
			<point x="279" y="682" type="line"/>
			<point x="284" y="682" type="line"/>
			<point x="285" y="653"/>
			<point x="287" y="546"/>
			<point x="286" y="467" type="qcurve"/>
			<point x="286" y="-3" type="line"/>
			<point x="264" y="-3" type="line"/>
			<point x="264" y="697" type="line"/>
			<point x="294" y="697" type="line"/>
			<point x="919" y="15" type="line"/>
			<point x="914" y="14" type="line"/>
			<point x="912" y="75"/>
			<point x="913" y="200"/>
		</contour>
		<contour>
			<point x="268" y="337" type="line"/>
			<point x="140" y="337" type="line"/>
			<point x="140" y="359" type="line"/>
			<point x="268" y="359" type="line"/>
			<point x="282" y="359" type="line"/>
			<point x="424" y="359" type="line"/>
			<point x="424" y="337" type="line"/>
			<point x="282" y="337" type="line"/>
		</contour>
		<contour>
			<point x="776" y="359" type="line"/>
			<point x="917" y="359" type="line"/>
			<point x="928" y="359" type="line"/>
			<point x="1040" y="359" type="line"/>
			<point x="1040" y="337" type="line"/>
			<point x="928" y="337" type="line"/>
			<point x="917" y="337" type="line"/>
			<point x="776" y="337" type="line"/>
		</contour>
		<contour>
			<point x="424" y="359" type="line"/>
			<point x="776" y="359" type="line"/>
			<point x="776" y="337" type="line"/>
			<point x="424" y="337" type="line"/>
		</contour>
	</outline>
</glyph>
<glyph name="peseta" format="2">
	<advance width="1183"/>
	<unicode hex="20A7"/>
	<anchor x="567" y="700" name="top"/>
	<anchor x="567" y="0" name="bottom"/>
	<outline>
		<contour>
			<point x="1028" y="500" type="line"/>
			<point x="123" y="500" type="line"/>
			<point x="123" y="522" type="line"/>
			<point x="1028" y="522" type="line"/>
		</contour>
		<contour>
			<point x="287" y="700" type="line"/>
			<point x="647" y="700" type="line"/>
			<point x="752" y="700"/>
			<point x="867" y="593"/>
			<point x="867" y="507" type="qcurve" smooth="yes"/>
			<point x="867" y="406"/>
			<point x="752" y="281"/>
			<point x="646" y="281" type="qcurve"/>
			<point x="295" y="281" type="line"/>
			<point x="309" y="300" type="line"/>
			<point x="309" y="0" type="line"/>
			<point x="287" y="0" type="line"/>
		</contour>
		<contour>
			<point x="294" y="303" type="line"/>
			<point x="640" y="303" type="line" smooth="yes"/>
			<point x="742" y="303"/>
			<point x="844" y="413"/>
			<point x="844" y="507" type="qcurve" smooth="yes"/>
			<point x="844" y="588"/>
			<point x="743" y="678"/>
			<point x="640" y="678" type="qcurve"/>
			<point x="296" y="678" type="line"/>
			<point x="309" y="700" type="line"/>
			<point x="309" y="295" type="line"/>
		</contour>
	</outline>
</glyph>
<glyph name="won" format="2">
	<advance width="1229"/>
	<unicode hex="20A9"/>
	<anchor x="640" y="640" name="top"/>
	<anchor x="640" y="0" name="bottom"/>
	<outline>
		<contour>
			<point x="365" y="0" type="line"/>
			<point x="131" y="700" type="line"/>
			<point x="155" y="700" type="line"/>
			<point x="314" y="220" type="line" smooth="yes"/>
			<point x="342" y="134"/>
			<point x="354" y="102"/>
			<point x="384" y="10" type="qcurve"/>
			<point x="379" y="10" type="line"/>
			<point x="414" y="97"/>
			<point x="448" y="181"/>
			<point x="468" y="228" type="qcurve"/>
			<point x="594" y="541" type="line"/>
			<point x="609" y="541" type="line"/>
			<point x="732" y="230" type="line" smooth="yes"/>
			<point x="753" y="176"/>
			<point x="805" y="39"/>
			<point x="817" y="10" type="qcurve"/>
			<point x="803" y="10" type="line"/>
			<point x="814" y="40"/>
			<point x="846" y="130"/>
			<point x="881" y="224" type="qcurve"/>
			<point x="1060" y="700" type="line"/>
			<point x="1084" y="700" type="line"/>
			<point x="822" y="0" type="line"/>
			<point x="798" y="0" type="line"/>
			<point x="595" y="517" type="line"/>
			<point x="608" y="517" type="line"/>
			<point x="398" y="0" type="line"/>
		</contour>
		<contour>
			<point x="253" y="351" type="line"/>
			<point x="129" y="351" type="line"/>
			<point x="129" y="373" type="line"/>
			<point x="245" y="373" type="line"/>
			<point x="257" y="373" type="line"/>
			<point x="390" y="373" type="line"/>
			<point x="390" y="351" type="line"/>
			<point x="264" y="351" type="line"/>
		</contour>
		<contour>
			<point x="811" y="373" type="line"/>
			<point x="943" y="373" type="line"/>
			<point x="952" y="373" type="line"/>
			<point x="1156" y="373" type="line"/>
			<point x="1156" y="351" type="line"/>
			<point x="948" y="351" type="line"/>
			<point x="937" y="351" type="line"/>
			<point x="811" y="351" type="line"/>
		</contour>
		<contour>
			<point x="390" y="373" type="line"/>
			<point x="811" y="373" type="line"/>
			<point x="811" y="351" type="line"/>
			<point x="390" y="351" type="line"/>
		</contour>
	</outline>
</glyph>
<glyph name="cedi" format="2">
	<advance width="992"/>
	<unicode hex="20B5"/>
	<anchor x="531" y="700" name="top"/>
	<anchor x="491" y="0" name="bottom"/>
	<outline>
		<contour>
			<point x="849" y="116" type="qcurve"/>
			<point x="860" y="97" type="line"/>
			<point x="805" y="48"/>
			<point x="651" y="-10"/>
			<point x="559" y="-10" type="qcurve"/>
			<point x="371" y="-10"/>
			<point x="135" y="195"/>
			<point x="135" y="349" type="qcurve"/>
			<point x="135" y="503"/>
			<point x="371" y="710"/>
			<point x="559" y="710" type="qcurve"/>
			<point x="654" y="710"/>
			<point x="811" y="648"/>
			<point x="866" y="596" type="qcurve"/>
			<point x="858" y="574" type="line"/>
			<point x="806" y="626"/>
			<point x="652" y="688"/>
			<point x="559" y="688" type="qcurve"/>
			<point x="383" y="688"/>
			<point x="158" y="494"/>
			<point x="158" y="349" type="qcurve"/>
			<point x="158" y="204"/>
			<point x="383" y="12"/>
			<point x="559" y="12" type="qcurve"/>
			<point x="648" y="12"/>
			<point x="795" y="68"/>
		</contour>
		<contour>
			<point x="519" y="351" type="line"/>
			<point x="519" y="692" type="line"/>
			<point x="519" y="703" type="line"/>
			<point x="519" y="785" type="line"/>
			<point x="541" y="785" type="line"/>
			<point x="541" y="703" type="line"/>
			<point x="541" y="692" type="line"/>
			<point x="541" y="351" type="line"/>
		</contour>
		<contour>
			<point x="541" y="-4" type="line"/>
			<point x="541" y="-85" type="line"/>
			<point x="519" y="-85" type="line"/>
			<point x="519" y="6" type="line"/>
			<point x="519" y="-4" type="line"/>
			<point x="519" y="351" type="line"/>
			<point x="541" y="351" type="line"/>
			<point x="541" y="6" type="line"/>
		</contour>
	</outline>
</glyph>
<glyph name="liraTurkish" format="2">
	<advance width="952"/>
	<unicode hex="20BA"/>
	<outline>
		<contour>
			<point x="312" y="0" type="qcurve"/>
			<point x="310" y="0"/>
			<point x="302" y="1"/>
			<point x="297" y="5" type="qcurve"/>
			<point x="297" y="700" type="line"/>
			<point x="319" y="700" type="line"/>
			<point x="319" y="8" type="line"/>
			<point x="310" y="22" type="line"/>
			<point x="478" y="22"/>
			<point x="742" y="162"/>
			<point x="767" y="282" type="qcurve"/>
			<point x="787" y="273" type="line"/>
			<point x="763" y="154"/>
			<point x="495" y="0"/>
		</contour>
		<contour>
			<point x="176" y="382" type="line"/>
			<point x="170" y="402" type="line"/>
			<point x="587" y="636" type="line"/>
			<point x="598" y="617" type="line"/>
		</contour>
		<contour>
			<point x="188" y="191" type="line"/>
			<point x="180" y="209" type="line"/>
			<point x="597" y="443" type="line"/>
			<point x="608" y="425" type="line"/>
		</contour>
	</outline>
</glyph>
<glyph name="numero" format="2">
	<advance width="1696"/>
	<unicode hex="2116"/>
	<anchor x="561" y="700" name="top"/>
	<anchor x="561" y="0" name="bottom"/>
	<outline>
		<contour>
			<point x="1440" y="206" type="line"/>
			<point x="1091" y="206" type="line"/>
			<point x="1091" y="228" type="line"/>
			<point x="1440" y="228" type="line"/>
		</contour>
		<contour>
			<point x="1266" y="710" type="qcurve"/>
			<point x="1347" y="710"/>
			<point x="1452" y="605"/>
			<point x="1452" y="524" type="qcurve"/>
			<point x="1452" y="443"/>
			<point x="1347" y="338"/>
			<point x="1266" y="338" type="qcurve"/>
			<point x="1185" y="338"/>
			<point x="1080" y="443"/>
			<point x="1080" y="524" type="qcurve"/>
			<point x="1080" y="605"/>
			<point x="1185" y="710"/>
		</contour>
		<contour>
			<point x="1265" y="360" type="qcurve"/>
			<point x="1337" y="360"/>
			<point x="1430" y="452"/>
			<point x="1430" y="524" type="qcurve"/>
			<point x="1430" y="596"/>
			<point x="1337" y="688"/>
			<point x="1265" y="688" type="qcurve"/>
			<point x="1194" y="688"/>
			<point x="1102" y="596"/>
			<point x="1102" y="524" type="qcurve"/>
			<point x="1102" y="452"/>
			<point x="1194" y="360"/>
		</contour>
		<contour>
			<point x="842" y="241" type="qcurve"/>
			<point x="842" y="700" type="line"/>
			<point x="864" y="700" type="line"/>
			<point x="864" y="0" type="line"/>
			<point x="834" y="0" type="line"/>
			<point x="209" y="685" type="line"/>
			<point x="214" y="685" type="line"/>
			<point x="215" y="656"/>
			<point x="217" y="549"/>
			<point x="216" y="470" type="qcurve"/>
			<point x="216" y="0" type="line"/>
			<point x="194" y="0" type="line"/>
			<point x="194" y="700" type="line"/>
			<point x="224" y="700" type="line"/>
			<point x="849" y="18" type="line"/>
			<point x="844" y="17" type="line"/>
			<point x="842" y="78"/>
			<point x="843" y="203"/>
		</contour>
	</outline>
</glyph>
<glyph name="Ohm" format="2">
	<advance width="1057"/>
	<unicode hex="2126"/>
	<note>
		Ohm
	</note>
	<outline>
		<contour>
			<point x="146" y="384" type="qcurve"/>
			<point x="146" y="526"/>
			<point x="362" y="710"/>
			<point x="529" y="710" type="qcurve"/>
			<point x="696" y="710"/>
			<point x="912" y="526"/>
			<point x="912" y="384" type="qcurve"/>
			<point x="912" y="287"/>
			<point x="782" y="76"/>
			<point x="682" y="10" type="qcurve"/>
			<point x="677" y="22" type="line"/>
			<point x="958" y="22" type="line"/>
			<point x="958" y="0" type="line"/>
			<point x="666" y="0" type="line"/>
			<point x="666" y="22" type="line"/>
			<point x="719" y="58"/>
			<point x="808" y="155"/>
			<point x="838" y="208" type="qcurve" smooth="yes"/>
			<point x="862" y="252"/>
			<point x="889" y="342"/>
			<point x="889" y="383" type="qcurve"/>
			<point x="889" y="516"/>
			<point x="686" y="688"/>
			<point x="529" y="688" type="qcurve"/>
			<point x="372" y="688"/>
			<point x="170" y="516"/>
			<point x="170" y="383" type="qcurve"/>
			<point x="170" y="343"/>
			<point x="199" y="253"/>
			<point x="225" y="208" type="qcurve" smooth="yes"/>
			<point x="255" y="157"/>
			<point x="341" y="60"/>
			<point x="393" y="22" type="qcurve"/>
			<point x="393" y="0" type="line"/>
			<point x="100" y="0" type="line"/>
			<point x="100" y="22" type="line"/>
			<point x="377" y="22" type="line"/>
			<point x="376" y="10" type="line"/>
			<point x="276" y="83"/>
			<point x="146" y="294"/>
		</contour>
	</outline>
</glyph>
<glyph name="estimated" format="2">
	<advance width="847"/>
	<unicode hex="212E"/>
	<note>
		estimated
	</note>
	<outline>
		<contour>
			<point x="667" y="115" type="qcurve" smooth="yes"/>
			<point x="621" y="49"/>
			<point x="515" y="-11"/>
			<point x="436" y="-11" type="qcurve" smooth="yes"/>
			<point x="311" y="-11"/>
			<point x="160" y="162"/>
			<point x="160" y="285" type="qcurve" smooth="yes"/>
			<point x="160" y="409"/>
			<point x="311" y="581"/>
			<point x="436" y="581" type="qcurve" smooth="yes"/>
			<point x="553" y="581"/>
			<point x="705" y="429"/>
			<point x="712" y="309" type="qcurve" smooth="yes"/>
			<point x="713" y="300"/>
			<point x="701" y="285"/>
			<point x="690" y="285" type="qcurve"/>
			<point x="210" y="285" type="line"/>
			<point x="216" y="292" type="line"/>
			<point x="216" y="213" type="line" smooth="yes"/>
			<point x="216" y="175"/>
			<point x="256" y="112"/>
			<point x="277" y="92" type="qcurve" smooth="yes"/>
			<point x="311" y="57"/>
			<point x="390" y="28"/>
			<point x="436" y="28" type="qcurve" smooth="yes"/>
			<point x="499" y="28"/>
			<point x="597" y="80"/>
			<point x="634" y="139" type="qcurve"/>
			<point x="637" y="144"/>
			<point x="646" y="150"/>
			<point x="651" y="150" type="qcurve" smooth="yes"/>
			<point x="659" y="150"/>
			<point x="673" y="140"/>
			<point x="673" y="130" type="qcurve" smooth="yes"/>
			<point x="673" y="126"/>
			<point x="669" y="118"/>
		</contour>
		<contour>
			<point x="206" y="324" type="line"/>
			<point x="668" y="324" type="line"/>
			<point x="654" y="320" type="line"/>
			<point x="654" y="355" type="line" smooth="yes"/>
			<point x="654" y="400"/>
			<point x="618" y="461"/>
			<point x="596" y="483" type="qcurve"/>
			<point x="567" y="512"/>
			<point x="480" y="543"/>
			<point x="435" y="543" type="qcurve" smooth="yes"/>
			<point x="390" y="543"/>
			<point x="292" y="514"/>
			<point x="268" y="481" type="qcurve" smooth="yes"/>
			<point x="248" y="454"/>
			<point x="216" y="386"/>
			<point x="216" y="365" type="qcurve"/>
			<point x="216" y="314" type="line"/>
		</contour>
	</outline>
</glyph>
<glyph name="emptyset" format="2">
	<advance width="928"/>
	<unicode hex="2205"/>
	<anchor x="478" y="0" name="bottom"/>
	<anchor x="860" y="10" name="ogonek"/>
	<anchor x="478" y="525" name="top"/>
	<anchor x="596" y="475" name="topright"/>
	<anchor x="478" y="263" name="center"/>
	<note>
		emptyset
	</note>
	<outline>
		<contour>
			<point x="146" y="1" type="line"/>
			<point x="134" y="18" type="line"/>
			<point x="784" y="529" type="line"/>
			<point x="796" y="511" type="line"/>
		</contour>
		<contour>
			<point x="478" y="529" type="qcurve"/>
			<point x="636" y="529"/>
			<point x="825" y="381"/>
			<point x="825" y="263" type="qcurve"/>
			<point x="825" y="143"/>
			<point x="636" y="-10"/>
			<point x="478" y="-10" type="qcurve"/>
			<point x="321" y="-10"/>
			<point x="130" y="143"/>
			<point x="130" y="263" type="qcurve"/>
			<point x="130" y="381"/>
			<point x="321" y="529"/>
		</contour>
		<contour>
			<point x="478" y="12" type="qcurve"/>
			<point x="615" y="12"/>
			<point x="803" y="152"/>
			<point x="803" y="263" type="qcurve"/>
			<point x="803" y="370"/>
			<point x="615" y="507"/>
			<point x="478" y="507" type="qcurve"/>
			<point x="340" y="507"/>
			<point x="152" y="372"/>
			<point x="152" y="263" type="qcurve"/>
			<point x="152" y="152"/>
			<point x="340" y="12"/>
		</contour>
	</outline>
</glyph>
<glyph name="increment" format="2">
	<advance width="996"/>
	<unicode hex="2206"/>
	<note>
		increment
	</note>
	<outline>
		<contour>
			<point x="497" y="720" type="line"/>
			<point x="909" y="0" type="line"/>
			<point x="891" y="0" type="line"/>
			<point x="101" y="0" type="line"/>
			<point x="82" y="0" type="line"/>
			<point x="492" y="720" type="line"/>
		</contour>
		<contour>
			<point x="498" y="687" type="line"/>
			<point x="112" y="9" type="line"/>
			<point x="103" y="22" type="line"/>
			<point x="886" y="22" type="line"/>
			<point x="879" y="10" type="line"/>
			<point x="490" y="687" type="line"/>
		</contour>
	</outline>
</glyph>
<glyph name="summation" format="2">
	<advance width="799"/>
	<unicode hex="2211"/>
	<note>
		summation
	</note>
	<outline>
		<contour>
			<point x="683" y="0" type="line"/>
			<point x="128" y="0" type="line"/>
			<point x="123" y="15" type="line"/>
			<point x="510" y="347" type="line"/>
			<point x="510" y="330" type="line"/>
			<point x="133" y="663" type="line"/>
			<point x="136" y="676" type="line"/>
			<point x="673" y="676" type="line"/>
			<point x="673" y="654" type="line"/>
			<point x="161" y="654" type="line"/>
			<point x="161" y="667" type="line"/>
			<point x="524" y="346" type="line"/>
			<point x="524" y="331" type="line"/>
			<point x="155" y="16" type="line"/>
			<point x="145" y="22" type="line"/>
			<point x="683" y="22" type="line"/>
		</contour>
	</outline>
</glyph>
<glyph name="divisionslash" format="2">
	<advance width="801"/>
	<unicode hex="2215"/>
	<note>
		divisionslash
	</note>
	<outline>
		<contour>
			<point x="184" y="-107" type="line"/>
			<point x="160" y="-107" type="line"/>
			<point x="584" y="756" type="line"/>
			<point x="608" y="756" type="line"/>
		</contour>
	</outline>
</glyph>
<glyph name="bulletoperator" format="2">
	<advance width="524"/>
	<unicode hex="2219"/>
	<note>
		bulletoperator
	</note>
	<outline>
		<contour>
			<point x="299" y="301" type="qcurve" smooth="yes"/>
			<point x="299" y="286"/>
			<point x="277" y="264"/>
			<point x="263" y="264" type="qcurve" smooth="yes"/>
			<point x="248" y="264"/>
			<point x="225" y="286"/>
			<point x="225" y="301" type="qcurve" smooth="yes"/>
			<point x="225" y="316"/>
			<point x="248" y="338"/>
			<point x="263" y="338" type="qcurve" smooth="yes"/>
			<point x="277" y="338"/>
			<point x="299" y="316"/>
		</contour>
	</outline>
</glyph>
<glyph name="approxequal" format="2">
	<advance width="831"/>
	<unicode hex="2248"/>
	<note>
		approxequal
	</note>
	<outline>
		<contour>
			<point x="558" y="127" type="qcurve"/>
			<point x="539" y="127"/>
			<point x="464" y="145"/>
			<point x="413" y="161" type="qcurve" smooth="yes"/>
			<point x="367" y="174"/>
			<point x="297" y="189"/>
			<point x="277" y="189" type="qcurve"/>
			<point x="233" y="189"/>
			<point x="187" y="157"/>
			<point x="188" y="127" type="qcurve"/>
			<point x="164" y="125" type="line"/>
			<point x="164" y="166"/>
			<point x="224" y="210"/>
			<point x="280" y="210" type="qcurve"/>
			<point x="305" y="210"/>
			<point x="379" y="195"/>
			<point x="423" y="181" type="qcurve" smooth="yes"/>
			<point x="470" y="166"/>
			<point x="543" y="149"/>
			<point x="563" y="149" type="qcurve"/>
			<point x="605" y="149"/>
			<point x="649" y="182"/>
			<point x="648" y="212" type="qcurve"/>
			<point x="671" y="213" type="line"/>
			<point x="671" y="172"/>
			<point x="612" y="127"/>
		</contour>
		<contour>
			<point x="558" y="320" type="qcurve"/>
			<point x="539" y="320"/>
			<point x="464" y="338"/>
			<point x="413" y="354" type="qcurve" smooth="yes"/>
			<point x="367" y="367"/>
			<point x="297" y="382"/>
			<point x="277" y="382" type="qcurve"/>
			<point x="233" y="382"/>
			<point x="187" y="350"/>
			<point x="188" y="320" type="qcurve"/>
			<point x="164" y="318" type="line"/>
			<point x="164" y="359"/>
			<point x="224" y="403"/>
			<point x="280" y="403" type="qcurve"/>
			<point x="305" y="403"/>
			<point x="379" y="388"/>
			<point x="423" y="374" type="qcurve" smooth="yes"/>
			<point x="470" y="359"/>
			<point x="543" y="342"/>
			<point x="563" y="342" type="qcurve"/>
			<point x="605" y="342"/>
			<point x="649" y="375"/>
			<point x="648" y="405" type="qcurve"/>
			<point x="671" y="406" type="line"/>
			<point x="671" y="365"/>
			<point x="612" y="320"/>
		</contour>
	</outline>
</glyph>
<glyph name="lozenge" format="2">
	<advance width="877"/>
	<unicode hex="25CA"/>
	<note>
		lozenge
	</note>
	<outline>
		<contour>
			<point x="439" y="-37" type="line"/>
			<point x="439" y="-37" type="line"/>
			<point x="126" y="328" type="line"/>
			<point x="126" y="328" type="line"/>
			<point x="439" y="689" type="line"/>
			<point x="439" y="689" type="line"/>
			<point x="750" y="328" type="line"/>
			<point x="750" y="328" type="line"/>
		</contour>
		<contour>
			<point x="150" y="333" type="line"/>
			<point x="448" y="-15" type="line"/>
			<point x="430" y="-15" type="line"/>
			<point x="729" y="336" type="line"/>
			<point x="729" y="320" type="line"/>
			<point x="429" y="667" type="line"/>
			<point x="448" y="667" type="line"/>
			<point x="150" y="323" type="line"/>
		</contour>
	</outline>
</glyph>
<glyph name="I.ss01" format="2">
	<advance width="492"/>
	<anchor x="262" y="0" name="ogonek"/>
	<anchor x="246" y="700" name="top"/>
	<anchor x="192" y="700" name="topleft"/>
	<anchor x="246" y="0" name="bottom"/>
	<note>
		I
	</note>
	<outline>
		<contour>
			<point x="257" y="700" type="qcurve"/>
			<point x="257" y="0" type="line"/>
			<point x="236" y="0" type="line"/>
			<point x="236" y="700" type="line"/>
			<point x="215" y="700"/>
			<point x="277" y="700"/>
		</contour>
	</outline>
</glyph>
<glyph name="_connection.round" format="2">
	<advance width="192"/>
	<anchor x="0" y="0" name="#exit"/>
	<outline>
		<contour>
			<point x="-79" y="102" type="qcurve"/>
			<point x="-31" y="149" type="line"/>
			<point x="13.77612" y="119.89552"/>
			<point x="126.32836" y="102"/>
			<point x="192" y="102" type="qcurve"/>
			<point x="192" y="0" type="line"/>
			<point x="92.74627" y="0"/>
			<point x="-33.47761" y="46.77612"/>
		</contour>
	</outline>
</glyph>
<glyph name="_guide" format="2">
	<advance width="1283"/>
	<outline>
		<contour>
			<point x="963" y="536" type="qcurve"/>
			<point x="1086.8806" y="536"/>
			<point x="1213" y="402.53731"/>
			<point x="1213" y="310" type="qcurve"/>
			<point x="1213" y="0" type="line"/>
			<point x="1110" y="0" type="line"/>
			<point x="1110" y="293" type="line"/>
			<point x="1110" y="357.92537"/>
			<point x="1009.14925" y="440"/>
			<point x="939" y="440" type="qcurve" smooth="yes"/>
			<point x="853.1791" y="440"/>
			<point x="741" y="328.74627"/>
			<point x="741" y="278" type="qcurve"/>
			<point x="741" y="0" type="line"/>
			<point x="741" y="0"/>
			<point x="638" y="0"/>
			<point x="638" y="0" type="qcurve"/>
			<point x="638" y="525" type="line"/>
			<point x="741" y="525" type="line"/>
			<point x="741" y="377" type="line"/>
			<point x="703" y="375" type="line"/>
			<point x="736.58209" y="430.97015"/>
			<point x="868.22388" y="536"/>
		</contour>
		<contour>
			<point x="347" y="536" type="qcurve"/>
			<point x="452.22388" y="536"/>
			<point x="527" y="408.80597"/>
			<point x="527" y="320" type="qcurve"/>
			<point x="527" y="0" type="line"/>
			<point x="424" y="0" type="line"/>
			<point x="424" y="313" type="line"/>
			<point x="424" y="369.71642"/>
			<point x="376.43284" y="445.73134"/>
			<point x="313" y="442" type="qcurve"/>
			<point x="253.29851" y="442"/>
			<point x="175" y="368.74627"/>
			<point x="175" y="318" type="qcurve"/>
			<point x="175" y="0" type="line"/>
			<point x="175" y="0"/>
			<point x="72" y="0"/>
			<point x="72" y="0" type="qcurve"/>
			<point x="72" y="525" type="line"/>
			<point x="175" y="525" type="line"/>
			<point x="175" y="417" type="line"/>
			<point x="157" y="405" type="line"/>
			<point x="170.43284" y="450.52239"/>
			<point x="277.59701" y="536"/>
		</contour>
	</outline>
</glyph>
<glyph name="a.ss01" format="2">
	<advance width="971"/>
	<anchor x="777" y="10" name="ogonek"/>
	<anchor x="460" y="0" name="bottom"/>
	<anchor x="454" y="525" name="top"/>
	<note>
		a
	</note>
	<outline>
		<contour>
			<point x="437" y="530" type="qcurve"/>
			<point x="571" y="530"/>
			<point x="746" y="428"/>
			<point x="746" y="304" type="qcurve"/>
			<point x="746" y="0" type="line"/>
			<point x="724" y="0" type="line"/>
			<point x="724" y="307" type="line"/>
			<point x="724" y="411"/>
			<point x="575" y="508"/>
			<point x="424" y="508" type="qcurve"/>
			<point x="361" y="508"/>
			<point x="219" y="463"/>
			<point x="159" y="420" type="qcurve"/>
			<point x="153" y="440" type="line"/>
			<point x="214" y="485"/>
			<point x="359" y="530"/>
		</contour>
		<contour>
			<point x="428" y="287" type="qcurve"/>
			<point x="732" y="287" type="line"/>
			<point x="732" y="265" type="line"/>
			<point x="422" y="265" type="line" smooth="yes"/>
			<point x="277" y="265"/>
			<point x="144" y="198"/>
			<point x="144" y="149" type="qcurve"/>
			<point x="144" y="83"/>
			<point x="287" y="12"/>
			<point x="381" y="12" type="qcurve"/>
			<point x="489" y="12"/>
			<point x="681" y="96"/>
			<point x="729" y="157" type="qcurve"/>
			<point x="742" y="146" type="line"/>
			<point x="698" y="87"/>
			<point x="499" y="-10"/>
			<point x="380" y="-10" type="qcurve"/>
			<point x="281" y="-10"/>
			<point x="122" y="67"/>
			<point x="122" y="149" type="qcurve"/>
			<point x="122" y="209"/>
			<point x="267" y="287"/>
		</contour>
	</outline>
</glyph>
<glyph name="dieresiscomb.case" format="2">
	<advance width="0"/>
	<anchor x="166" y="704" name="top"/>
	<anchor x="166" y="549" name="_top"/>
	<outline>
		<contour>
			<point x="116" y="683" type="qcurve" smooth="yes"/>
			<point x="116" y="675"/>
			<point x="106.07463" y="656"/>
			<point x="89" y="656" type="qcurve" smooth="yes"/>
			<point x="74.92537" y="656"/>
			<point x="62" y="672.89552"/>
			<point x="62" y="683" type="qcurve" smooth="yes"/>
			<point x="62" y="689.62687"/>
			<point x="72.92537" y="710"/>
			<point x="89" y="710" type="qcurve" smooth="yes"/>
			<point x="105.07463" y="710"/>
			<point x="116" y="693"/>
		</contour>
		<contour>
			<point x="266" y="683" type="qcurve" smooth="yes"/>
			<point x="266" y="675"/>
			<point x="256.07463" y="656"/>
			<point x="239" y="656" type="qcurve" smooth="yes"/>
			<point x="224.92537" y="656"/>
			<point x="212" y="672.89552"/>
			<point x="212" y="683" type="qcurve" smooth="yes"/>
			<point x="212" y="689.62687"/>
			<point x="222.92537" y="710"/>
			<point x="239" y="710" type="qcurve" smooth="yes"/>
			<point x="255.07463" y="710"/>
			<point x="266" y="693"/>
		</contour>
	</outline>
</glyph>
<glyph name="eight.dnom" format="2">
	<advance width="353"/>
	<outline>
		<contour>
			<point x="288" y="93" type="qcurve"/>
			<point x="288" y="50.08333"/>
			<point x="220.73134" y="-10"/>
			<point x="176" y="-10" type="qcurve"/>
			<point x="129.52239" y="-10"/>
			<point x="62" y="49.97015"/>
			<point x="62" y="93" type="qcurve"/>
			<point x="62" y="130.50511"/>
			<point x="107.68378" y="176.83036"/>
			<point x="131" y="187" type="qcurve"/>
			<point x="134" y="177" type="line"/>
			<point x="109.20549" y="190.16591"/>
			<point x="70" y="230.40299"/>
			<point x="70" y="264" type="qcurve"/>
			<point x="70" y="303.28358"/>
			<point x="130.50746" y="358"/>
			<point x="176" y="358" type="qcurve"/>
			<point x="217.74627" y="358"/>
			<point x="279" y="303.28358"/>
			<point x="279" y="264" type="qcurve"/>
			<point x="279" y="229.91045"/>
			<point x="234.66628" y="189.26055"/>
			<point x="217" y="177" type="qcurve"/>
			<point x="222" y="187" type="line"/>
			<point x="251.03985" y="174.5887"/>
			<point x="288" y="122.24444"/>
		</contour>
		<contour>
			<point x="92" y="263" type="qcurve"/>
			<point x="92" y="233"/>
			<point x="140.85075" y="192"/>
			<point x="176" y="192" type="qcurve"/>
			<point x="207.65672" y="192"/>
			<point x="257" y="232.83582"/>
			<point x="257" y="263" type="qcurve"/>
			<point x="257" y="294.91045"/>
			<point x="207.40299" y="336"/>
			<point x="176" y="336" type="qcurve"/>
			<point x="140.10448" y="336"/>
			<point x="92" y="296"/>
		</contour>
		<contour>
			<point x="84" y="92" type="qcurve"/>
			<point x="84" y="59"/>
			<point x="137.86567" y="12"/>
			<point x="176" y="12" type="qcurve"/>
			<point x="211.13433" y="12"/>
			<point x="266" y="59.41703"/>
			<point x="266" y="92" type="qcurve"/>
			<point x="266" y="125.96219"/>
			<point x="211.64179" y="172"/>
			<point x="176" y="172" type="qcurve"/>
			<point x="135.61194" y="172"/>
			<point x="84" y="126"/>
		</contour>
	</outline>
</glyph>
<glyph name="ring.case" format="2">
	<advance width="318"/>
	<anchor x="155" y="628" name="_top"/>
	<outline>
		<contour>
			<point x="257" y="835" type="qcurve"/>
			<point x="257" y="797"/>
			<point x="198" y="740"/>
			<point x="159" y="740" type="qcurve"/>
			<point x="121" y="740"/>
			<point x="62" y="797"/>
			<point x="62" y="835" type="qcurve"/>
			<point x="62" y="875"/>
			<point x="121" y="931"/>
			<point x="159" y="931" type="qcurve"/>
			<point x="197" y="931"/>
			<point x="257" y="875"/>
		</contour>
		<contour>
			<point x="84" y="835" type="qcurve"/>
			<point x="84" y="806"/>
			<point x="129" y="762"/>
			<point x="159" y="762" type="qcurve"/>
			<point x="190" y="762"/>
			<point x="235" y="806"/>
			<point x="235" y="835" type="qcurve"/>
			<point x="235" y="870"/>
			<point x="189" y="909"/>
			<point x="159" y="909" type="qcurve"/>
			<point x="127" y="909"/>
			<point x="84" y="867"/>
		</contour>
	</outline>
</glyph>
<glyph name="six.dnom" format="2">
	<advance width="333"/>
	<outline>
		<contour>
			<point x="279" y="108" type="qcurve"/>
			<point x="279" y="56"/>
			<point x="209" y="-10"/>
			<point x="162" y="-10" type="qcurve"/>
			<point x="104" y="-10"/>
			<point x="42" y="68"/>
			<point x="42" y="130" type="qcurve"/>
			<point x="42" y="233"/>
			<point x="105" y="358"/>
			<point x="176" y="358" type="qcurve"/>
			<point x="198" y="358"/>
			<point x="240" y="345"/>
			<point x="261" y="330" type="qcurve"/>
			<point x="251" y="311" type="line"/>
			<point x="237" y="320"/>
			<point x="199" y="336"/>
			<point x="173" y="336" type="qcurve"/>
			<point x="123" y="336"/>
			<point x="67" y="244"/>
			<point x="63" y="151" type="qcurve"/>
			<point x="54" y="140" type="line"/>
			<point x="66" y="181"/>
			<point x="124" y="225"/>
			<point x="162" y="225" type="qcurve"/>
			<point x="213" y="225"/>
			<point x="279" y="155"/>
		</contour>
		<contour>
			<point x="66" y="107" type="qcurve"/>
			<point x="66" y="68"/>
			<point x="120" y="11"/>
			<point x="161" y="11" type="qcurve"/>
			<point x="200" y="11"/>
			<point x="258" y="67"/>
			<point x="258" y="107" type="qcurve"/>
			<point x="258" y="147"/>
			<point x="202" y="204"/>
			<point x="161" y="204" type="qcurve"/>
			<point x="120" y="204"/>
			<point x="66" y="146"/>
		</contour>
	</outline>
</glyph>
<glyph name="three.dnom" format="2">
	<advance width="342"/>
	<outline>
		<contour>
			<point x="297" y="108" type="qcurve"/>
			<point x="297" y="52"/>
			<point x="219.25373" y="-10"/>
			<point x="174" y="-10" type="qcurve"/>
			<point x="144.89552" y="-10"/>
			<point x="86.14907" y="9.07463"/>
			<point x="65.99982" y="24" type="qcurve"/>
			<point x="78" y="42" type="line"/>
			<point x="111.64179" y="21.56716"/>
			<point x="153.8209" y="12"/>
			<point x="172" y="12" type="qcurve"/>
			<point x="212.8806" y="12"/>
			<point x="275" y="60.38806"/>
			<point x="275" y="107" type="qcurve"/>
			<point x="275" y="146.89552"/>
			<point x="217.62687" y="194"/>
			<point x="181" y="194" type="qcurve"/>
			<point x="149.61893" y="194"/>
			<point x="105.50616" y="178.89024"/>
			<point x="97" y="169" type="qcurve"/>
			<point x="92" y="184" type="line"/>
			<point x="249" y="334" type="line"/>
			<point x="254" y="329" type="line"/>
			<point x="80" y="329" type="line"/>
			<point x="80" y="350" type="line"/>
			<point x="266" y="350" type="line"/>
			<point x="270" y="326" type="line"/>
			<point x="124" y="187" type="line"/>
			<point x="107" y="187" type="line"/>
			<point x="132.38783" y="203.76104"/>
			<point x="164.71948" y="215"/>
			<point x="183" y="215" type="qcurve"/>
			<point x="232.29904" y="215"/>
			<point x="297" y="152"/>
		</contour>
	</outline>
</glyph>
<glyph name="two.dnom" format="2">
	<advance width="346"/>
	<outline>
		<contour>
			<point x="295" y="0" type="line"/>
			<point x="75" y="0" type="line"/>
			<point x="72" y="26" type="line"/>
			<point x="146" y="111" type="line" smooth="yes"/>
			<point x="170.87504" y="138.82944"/>
			<point x="193" y="163"/>
			<point x="207" y="179" type="qcurve" smooth="yes"/>
			<point x="229.20609" y="205.23906"/>
			<point x="260" y="253"/>
			<point x="260" y="276" type="qcurve"/>
			<point x="260" y="303"/>
			<point x="219" y="339"/>
			<point x="188" y="339" type="qcurve"/>
			<point x="158" y="339"/>
			<point x="110.94347" y="306.9039"/>
			<point x="93" y="275" type="qcurve"/>
			<point x="74" y="288" type="line"/>
			<point x="86.93486" y="310.8842"/>
			<point x="143" y="361"/>
			<point x="188" y="361" type="qcurve"/>
			<point x="229" y="361"/>
			<point x="282" y="314"/>
			<point x="282" y="277" type="qcurve"/>
			<point x="282" y="236"/>
			<point x="194" y="131"/>
			<point x="166" y="100" type="qcurve"/>
			<point x="89" y="13" type="line"/>
			<point x="90" y="22" type="line"/>
			<point x="295" y="22" type="line"/>
		</contour>
	</outline>
</glyph>
